# xmcd
#
# Track frame offsets:
#	150
#	17414
#	33822
#	53255
#	71491
#	95844
#	119702
#	137014
#	153780
#	172090
#	188107
#	208621
#
# Disc length: 2984 seconds
#
# Revision: 1
# Processed by: cddbd v1.5.2PL0 Copyright (c) Steve Scherf et al.
# Submitted via: audiograbber 1.83.01
#
DISCID=9b0ba60c
DTITLE=Various Artist - Street Beats V08 S06 CD1
DYEAR=1900
DGENRE=R&B
TTITLE0=Common - Come Close To Me Ft Mary J Blige
TTITLE1=Larry Gold - Feel So Good Ft Nanda
TTITLE2=Jurassic 5 - Thin Line Ft Mya
TTITLE3=702 - Star
TTITLE4=Freeway - Alright Ft Allen Anthony
TTITLE5=Shaun Escoffery - Let It Go (4 Hero Club Mix)
TTITLE6=Fallacy - Big N' Bashy
TTITLE7=Jamelia - Bout Ft Rah Digga (Sticky Remix)
TTITLE8=Shola Ama - Supersonic
TTITLE9=Freddie Foxxx - The Konnexion
TTITLE10=Full Flava Ft Donna Odain - Make It Right
TTITLE11=Bounty Killer - Musical Works
EXTD=
EXTT0=
EXTT1=
EXTT2=
EXTT3=
EXTT4=
EXTT5=
EXTT6=
EXTT7=
EXTT8=
EXTT9=
EXTT10=
EXTT11=
PLAYORDER=
